<svg xmlns="http://www.w3.org/2000/svg" viewBox="0 0 1190.863 341.757"><title>academy_horizontal</title><g id="Layer_2" data-name="Layer 2"><g id="Layer_1-2" data-name="Layer 1"><rect x="849.106" width="341.757" height="341.757" style="fill:#293241"/><path d="M989.329,240.55a7.57,7.57,0,0,1,.75-3.49,10.214,10.214,0,0,1,4.166-4.315q1.239-.676,2.214-1.126a9.368,9.368,0,0,1-4.353-8.107,8.926,8.926,0,0,1,1.276-4.728,12.6,12.6,0,0,1,3.227-3.566,14.439,14.439,0,0,1,4.317-2.214,15.017,15.017,0,0,1,4.54-.75,11.827,11.827,0,0,1,5.817,1.351,16.4,16.4,0,0,1,3.565,2.477,8.867,8.867,0,0,1,2.439-2.627,6.545,6.545,0,0,1,4.016-1.2,6.147,6.147,0,0,1,2.778.638q1.275.639,1.275,2.74a2.416,2.416,0,0,1-.863,2.026,2.836,2.836,0,0,1-1.763.676,1.751,1.751,0,0,1-1.5-.6,8.185,8.185,0,0,1-.788-1.276c-.226-.451-.464-.875-.713-1.276a1.246,1.246,0,0,0-1.126-.6,2.475,2.475,0,0,0-1.539.637,7.738,7.738,0,0,0-1.388,1.464,16.724,16.724,0,0,1,1.726,2.553,8.819,8.819,0,0,1,1.051,4.5,7.874,7.874,0,0,1-1.126,4.128,11.943,11.943,0,0,1-2.964,3.3,13.861,13.861,0,0,1-4.279,2.214,16.135,16.135,0,0,1-4.992.789,13.292,13.292,0,0,1-4.579-.714,30.027,30.027,0,0,1-3-1.237q-.828.375-1.764.825a7.857,7.857,0,0,0-1.727,1.126,5.889,5.889,0,0,0-1.313,1.614,4.3,4.3,0,0,0-.526,2.139,3.585,3.585,0,0,0,.451,1.876,2.941,2.941,0,0,0,1.163,1.126,5.288,5.288,0,0,0,1.614.525,11.3,11.3,0,0,0,1.876.151h11.859a12.939,12.939,0,0,1,8.369,2.514q3.114,2.514,3.116,7.918a12.675,12.675,0,0,1-1.427,6,15.612,15.612,0,0,1-3.79,4.691,17.38,17.38,0,0,1-5.442,3.077,18.8,18.8,0,0,1-6.305,1.089,20.036,20.036,0,0,1-5.366-.676,15.262,15.262,0,0,1-4.241-1.839,8.9,8.9,0,0,1-2.815-2.815,6.892,6.892,0,0,1-1.013-3.677,8.013,8.013,0,0,1,.788-3.565,10.519,10.519,0,0,1,2.026-2.852,13.214,13.214,0,0,1,2.816-2.139,22.369,22.369,0,0,1,3.152-1.5v-.15q-4.955,0-7.318-1.614T989.329,240.55Zm11.259,7.131q-.976.6-1.99,1.238a7.33,7.33,0,0,0-1.8,1.614,8.047,8.047,0,0,0-1.275,2.289,11.113,11.113,0,0,0,.45,7.731,8.414,8.414,0,0,0,2.4,2.853,9.132,9.132,0,0,0,3.264,1.538,14.522,14.522,0,0,0,3.529.45,13.969,13.969,0,0,0,4.916-.826,12.512,12.512,0,0,0,3.828-2.214,9.744,9.744,0,0,0,2.476-3.189,8.6,8.6,0,0,0,.864-3.753q0-4.2-2.29-5.967a10.031,10.031,0,0,0-6.267-1.764Zm12.159-24.394a27.542,27.542,0,0,0-.225-3.489,10.316,10.316,0,0,0-.938-3.229,5.662,5.662,0,0,0-2.176-2.364,7.483,7.483,0,0,0-3.942-.9,7.113,7.113,0,0,0-5.778,2.327q-1.953,2.326-1.953,7.655a22.1,22.1,0,0,0,.338,4.053,8.06,8.06,0,0,0,1.239,3.115,5.658,5.658,0,0,0,2.4,1.99,9.387,9.387,0,0,0,3.827.674q3.9,0,5.555-2.439T1012.747,223.287Z" style="fill:#fff"/><path d="M1028.628,243.231h5.78V191.216h-5.78v-1.051h12.235v27.921h.15a10.974,10.974,0,0,1,3.6-4.954,10.432,10.432,0,0,1,6.681-2.026,13.719,13.719,0,0,1,6.079,1.388,17.251,17.251,0,0,1,8.482,9.045,17.016,17.016,0,0,1-.038,13.022,18.507,18.507,0,0,1-3.565,5.517,17.453,17.453,0,0,1-5.217,3.828,14.291,14.291,0,0,1-6.267,1.426,9.755,9.755,0,0,1-4.315-.863,10.35,10.35,0,0,1-2.928-2.064,9.2,9.2,0,0,1-1.763-2.477,20.146,20.146,0,0,1-.9-2.177h-.151v6.53h-12.084Zm31-16.138a46.019,46.019,0,0,0-.375-6.192,15.824,15.824,0,0,0-1.314-4.692,7.029,7.029,0,0,0-2.627-3,8.054,8.054,0,0,0-4.316-1.05,9.556,9.556,0,0,0-4.578.975,8.911,8.911,0,0,0-2.928,2.477,9.339,9.339,0,0,0-1.313,2.252,14.491,14.491,0,0,0-.788,2.852,30.32,30.32,0,0,0-.413,3.79q-.111,2.141-.112,5.067a35.963,35.963,0,0,0,.375,5.1,15.756,15.756,0,0,0,1.426,4.766,9.121,9.121,0,0,0,2.965,3.49,10.334,10.334,0,0,0,9.944.15,7.235,7.235,0,0,0,2.7-3.452,18.12,18.12,0,0,0,1.126-5.442Q1059.627,231,1059.627,227.093Z" style="fill:#fff"/><path d="M1077.865,233.773h.826a27.705,27.705,0,0,0,1.351,3.641,12.878,12.878,0,0,0,2.214,3.377,10.877,10.877,0,0,0,3.415,2.514,11.148,11.148,0,0,0,4.879.976,6.769,6.769,0,0,0,4.278-1.463q1.875-1.464,1.876-4.767,0-2.851-1.463-4.015a11.456,11.456,0,0,0-3.415-1.839l-5.855-2.027c-.75-.249-1.565-.563-2.439-.938a8.814,8.814,0,0,1-2.44-1.576,7.7,7.7,0,0,1-1.839-2.59,9.872,9.872,0,0,1-.713-4.052,9.251,9.251,0,0,1,.826-3.9,9.954,9.954,0,0,1,5.667-5.254,12.151,12.151,0,0,1,4.316-.75,10.968,10.968,0,0,1,2.664.263q1.014.263,1.764.525t1.351.525a3.521,3.521,0,0,0,1.426.263,1.311,1.311,0,0,0,1.2-.6h.825v8.557h-.825a32.641,32.641,0,0,0-1.2-3.19,12.851,12.851,0,0,0-1.613-2.74,6.589,6.589,0,0,0-2.327-1.876,7.4,7.4,0,0,0-3.265-.675,8.658,8.658,0,0,0-5.592,1.613,5.274,5.274,0,0,0-1.99,4.316,4.227,4.227,0,0,0,1.689,3.64,17.706,17.706,0,0,0,4.992,2.29l5.479,1.8a15.8,15.8,0,0,1,5.779,3.3,7.237,7.237,0,0,1,2.252,5.554,10.545,10.545,0,0,1-.788,3.978,9.651,9.651,0,0,1-2.327,3.415,11.858,11.858,0,0,1-3.753,2.364,13.346,13.346,0,0,1-5.066.9,12.858,12.858,0,0,1-3.04-.338q-1.39-.338-2.551-.713t-2.14-.713a5.544,5.544,0,0,0-1.8-.337,1.766,1.766,0,0,0-1.2.337,3.134,3.134,0,0,0-.6.713h-.826Z" style="fill:#fff"/><path d="M1110.139,243.231h5.78v-30.1h-5.78v-1.051h12.085v8.032h.15q.45-.975,1.313-2.477a13.073,13.073,0,0,1,2.365-2.928,12.849,12.849,0,0,1,9.231-3.452,12.844,12.844,0,0,1,8.069,2.4q3.114,2.4,3.115,7.655v21.918h5.78v1.05h-18.014v-1.05h5.779V218.987a7.865,7.865,0,0,0-1.389-4.8,5.015,5.015,0,0,0-4.315-1.876,10.422,10.422,0,0,0-4.579,1.05,12.059,12.059,0,0,0-3.828,2.928,13.888,13.888,0,0,0-2.589,4.428,15.975,15.975,0,0,0-.938,5.555v16.963h5.779v1.05h-18.014Z" style="fill:#fff"/><path d="M887.723,243.232H893.5V191.216h-5.779v-1.051h12.234v27.922h.15a10.974,10.974,0,0,1,3.6-4.954,10.424,10.424,0,0,1,6.681-2.027,13.727,13.727,0,0,1,6.08,1.389,17.261,17.261,0,0,1,8.482,9.045,17.029,17.029,0,0,1-.038,13.022,18.5,18.5,0,0,1-3.565,5.518,17.45,17.45,0,0,1-5.217,3.827,14.277,14.277,0,0,1-6.267,1.426,9.759,9.759,0,0,1-4.316-.863,10.313,10.313,0,0,1-2.928-2.063,9.207,9.207,0,0,1-1.763-2.478,20.141,20.141,0,0,1-.9-2.176h-.15v6.53H887.723Zm31-16.138a46.222,46.222,0,0,0-.374-6.193,15.847,15.847,0,0,0-1.314-4.691,7.029,7.029,0,0,0-2.627-3,8.059,8.059,0,0,0-4.316-1.05,9.55,9.55,0,0,0-4.578.975,8.9,8.9,0,0,0-2.928,2.477,9.286,9.286,0,0,0-1.313,2.251,14.518,14.518,0,0,0-.789,2.853,30.312,30.312,0,0,0-.412,3.79q-.114,2.141-.113,5.067a35.963,35.963,0,0,0,.375,5.1,15.757,15.757,0,0,0,1.427,4.766,9.1,9.1,0,0,0,2.964,3.49,8.605,8.605,0,0,0,5.066,1.352,8.693,8.693,0,0,0,4.88-1.2,7.247,7.247,0,0,0,2.7-3.453,18.128,18.128,0,0,0,1.125-5.442Q918.723,231,918.721,227.094Z" style="fill:#fff"/><path d="M928.628,212.082h18.39v1.051h-6.305L950.4,236.7l10.133-23.569H954.3v-1.051h11.484v1.051H961.73l-12.385,28.973q-1.427,3.228-2.7,6.492t-2.552,6.568a48.606,48.606,0,0,1-2.1,4.729,15.521,15.521,0,0,1-2.214,3.3,8.149,8.149,0,0,1-2.515,1.914,7.328,7.328,0,0,1-3.152.638,7.659,7.659,0,0,1-3.49-.676,6.507,6.507,0,0,1-2.065-1.576,4.533,4.533,0,0,1-.975-1.876,7.514,7.514,0,0,1-.225-1.652,3.579,3.579,0,0,1,1.05-2.814,3.689,3.689,0,0,1,2.552-.939,6.235,6.235,0,0,1,1.126.112,3.608,3.608,0,0,1,1.126.414,2.823,2.823,0,0,1,.9.825,2.144,2.144,0,0,1,.375,1.276,3.49,3.49,0,0,1-.638,1.989,3.585,3.585,0,0,0-.638,2.064,1.353,1.353,0,0,0,.525,1.277,2.9,2.9,0,0,0,1.426.3,4.493,4.493,0,0,0,2.215-.563,6.721,6.721,0,0,0,1.988-1.839,18.87,18.87,0,0,0,1.952-3.34q.975-2.067,2.177-5.067l3.3-8.406-12.986-32.126h-5.179Z" style="fill:#fff"/><rect width="849.106" height="341.757" style="fill:#5168c1"/><path d="M152.7,231.957H114.285l-7.8,30.227H77.233l39.588-127.151h34.323l39.589,127.151H160.309Zm-5.849-22.428-2.926-11.7q-2.536-9.552-5.07-20.281t-5.071-20.672h-.78q-2.339,10.142-4.876,20.769t-5.07,20.184l-2.925,11.7Z" style="fill:#fff"/><path d="M186.05,213.82a48.816,48.816,0,0,1,4.583-21.55,47.24,47.24,0,0,1,12.285-15.893,54.763,54.763,0,0,1,17.845-9.849,66.251,66.251,0,0,1,21.257-3.413,55.522,55.522,0,0,1,20.769,3.706,51.133,51.133,0,0,1,15.5,9.36l-13.261,17.747q-10.728-7.606-21.452-7.606-12.483,0-20.282,7.411t-7.8,20.087q0,12.678,7.509,20.087t19.6,7.41a35.572,35.572,0,0,0,14.042-2.729,57.439,57.439,0,0,0,11.506-6.437l11.7,18.137a56.673,56.673,0,0,1-19.4,10.824,67.243,67.243,0,0,1-20.575,3.412,63.983,63.983,0,0,1-21.257-3.412,51.023,51.023,0,0,1-17.065-9.849,44.239,44.239,0,0,1-11.408-15.893A53.743,53.743,0,0,1,186.05,213.82Z" style="fill:#fff"/><path d="M282.387,235.272a28.391,28.391,0,0,1,3.51-14.334q3.51-6.142,11.214-10.433t19.794-6.923a190.9,190.9,0,0,1,29.253-3.609,14.4,14.4,0,0,0-5.753-10.336q-4.974-3.7-14.919-3.705a43.46,43.46,0,0,0-14.14,2.438,125.675,125.675,0,0,0-15.309,6.533L285.9,176.181a114.977,114.977,0,0,1,21.354-9.36,76.888,76.888,0,0,1,23.89-3.706q20.279,0,31.982,10.727t11.7,32.958v55.384h-23.4l-2.144-10.921H348.5a77,77,0,0,1-16.186,9.458,45.158,45.158,0,0,1-18.137,3.8,36.879,36.879,0,0,1-13.261-2.242,28.743,28.743,0,0,1-9.946-6.24,28.3,28.3,0,0,1-6.338-9.264A29.04,29.04,0,0,1,282.387,235.272Zm27.5-2.145a7.571,7.571,0,0,0,3.609,6.923q3.606,2.244,9.847,2.243a28.312,28.312,0,0,0,12.092-2.633,57.028,57.028,0,0,0,10.726-6.533V217.136a134.014,134.014,0,0,0-17.748,1.95A44.4,44.4,0,0,0,317.3,222.5a13.574,13.574,0,0,0-5.754,4.778A11.092,11.092,0,0,0,309.884,233.127Z" style="fill:#fff"/><path d="M377.164,213.82a60.248,60.248,0,0,1,3.51-21.257,50.674,50.674,0,0,1,9.264-15.894A40.588,40.588,0,0,1,403.1,166.626a35.561,35.561,0,0,1,15.406-3.511,31.273,31.273,0,0,1,14.042,2.828,46.533,46.533,0,0,1,10.726,7.508l-.976-15.016V115.849h28.668V262.184h-23.4l-2.145-9.946h-.586a50.149,50.149,0,0,1-12.48,8.776,31.924,31.924,0,0,1-14.432,3.51,38.881,38.881,0,0,1-16.674-3.51,36.423,36.423,0,0,1-12.871-10.044,46.616,46.616,0,0,1-8.288-15.893A71.211,71.211,0,0,1,377.164,213.82Zm29.448-.391q0,14.436,4.875,21.063t13.845,6.631a19.785,19.785,0,0,0,8.972-2.048,24.805,24.805,0,0,0,8-6.924v-39.2a24.58,24.58,0,0,0-7.9-4.973,23.949,23.949,0,0,0-8.287-1.463q-8,0-13.749,6.631T406.612,213.429Z" style="fill:#fff"/><path d="M476.231,213.82a51.44,51.44,0,0,1,4.193-21.257,48.469,48.469,0,0,1,11.213-15.894,49.757,49.757,0,0,1,16.089-10.043,54.548,54.548,0,0,1,38.517,0,38.647,38.647,0,0,1,14.236,9.751,42.1,42.1,0,0,1,8.58,14.723,56.188,56.188,0,0,1,2.926,18.429,67.148,67.148,0,0,1-.391,7.411q-.393,3.51-.779,5.266H505.678q1.558,10.923,9.459,15.7a35.27,35.27,0,0,0,18.623,4.777,46.655,46.655,0,0,0,12.58-1.657,65.516,65.516,0,0,0,12.383-4.973l9.361,17.162a71.462,71.462,0,0,1-18.332,8.288,69.466,69.466,0,0,1-19.891,3.022,63.371,63.371,0,0,1-21.062-3.412,49.048,49.048,0,0,1-16.967-9.946,47.094,47.094,0,0,1-11.408-15.894A51.935,51.935,0,0,1,476.231,213.82Zm69.816-10.531q0-8.191-4.486-13.261t-14.431-5.071a22.63,22.63,0,0,0-13.846,4.485q-6.048,4.489-8,13.847Z" style="fill:#fff"/><path d="M570.032,165.456h21.453l2.144,12.091h.781a29.687,29.687,0,0,1,7.507-10.239q4.777-4.192,13.164-4.193a15.489,15.489,0,0,1,10.824,4q4.388,4,6.142,11.8a30.077,30.077,0,0,1,7.9-11.214q5.164-4.579,13.359-4.583a18.071,18.071,0,0,1,15.8,8.288q5.654,8.292,5.655,22.915v67.866H647.844v-65.72q0-8.968-5.461-8.972-5.265,0-8.971,9.361v65.331H611.375v-65.72q0-8.968-5.654-8.972a5.9,5.9,0,0,0-4.682,2.341,32.15,32.15,0,0,0-4.094,7.02v65.331H570.032Z" style="fill:#fff"/><path d="M686.26,277.4q8.384,0,13.164-3.509a21.184,21.184,0,0,0,7.118-9.167l1.951-5.07-41.929-94.193h28.472l16.187,41.538q2.727,6.829,5.07,14.139t4.68,14.919h.781q1.946-7.213,4.289-14.529t4.487-14.529l14.236-41.538h27.107l-38.222,97.7a106.592,106.592,0,0,1-7.608,16.09,46.4,46.4,0,0,1-9.359,11.506,35.919,35.919,0,0,1-12.19,6.923,50.254,50.254,0,0,1-16.087,2.339,61.766,61.766,0,0,1-8-.487,40.725,40.725,0,0,1-6.826-1.463l5.071-21.842A25.062,25.062,0,0,0,686.26,277.4Z" style="fill:#fff"/></g></g></svg>