<svg xmlns="http://www.w3.org/2000/svg" viewBox="0 0 309 309"><title>cliox</title><g id="Layer_2" data-name="Layer 2"><g id="Layer_1-2" data-name="Layer 1"><rect x="0.5" y="0.5" width="308" height="308" style="fill:#fff;stroke:#fff;stroke-miterlimit:10"/><path d="M89.9,117.731a24.074,24.074,0,0,0-11.549-3.167,22.589,22.589,0,0,0-11.984,3.291,23.313,23.313,0,0,0-8.506,9.065,28.157,28.157,0,0,0,0,25.706,23.272,23.272,0,0,0,8.506,9.065,22.573,22.573,0,0,0,11.984,3.293A26.368,26.368,0,0,0,89.53,162.25,35.385,35.385,0,0,0,99.962,154.8l13.287,14.282a53.131,53.131,0,0,1-16.826,11.86,46.72,46.72,0,0,1-42.656-1.552,43.554,43.554,0,0,1-16.393-16.269,45.292,45.292,0,0,1-5.961-23.1A43.381,43.381,0,0,1,54.2,101.152a49.5,49.5,0,0,1,42.9-1.8,47.463,47.463,0,0,1,16.019,10.99L99.962,126.236A32.491,32.491,0,0,0,89.9,117.731Z"/><path d="M122.934,96.681h22.725V164.36h36.882v19.373H122.934Z"/><path d="M192.847,96.681h22.725v87.052H192.847Z"/><path d="M181.466,214.5a34.739,34.739,0,0,1-8.858-1.137c-9.151-2.438-15.727-7.863-19.549-16.123l-.041-.094a34.66,34.66,0,0,1-.686-26.224A42.375,42.375,0,0,1,170.115,148.4c3.385-2.605,6.169-4.116,8.509-4.617a18.154,18.154,0,0,1,3.475-.266,49.547,49.547,0,0,1,6,.44c9.694,1.214,17.3,5.757,22.622,13.5,3.791,5.615,5.708,12.469,5.708,20.387a35.763,35.763,0,0,1-.226,3.855c-.738,9.6-3.8,17.347-9.1,22.946a32.55,32.55,0,0,1-15.742,8.715A44.473,44.473,0,0,1,181.466,214.5Zm-8.6-21.56c1.157.83,3.583,1.8,8.6,1.8,4.653,0,8.214-.841,10.581-2.5,2.333-1.518,3.843-4.046,4.688-7.778a23.241,23.241,0,0,0,.781-5.982,25.516,25.516,0,0,0-.769-6.143c-.977-4.019-2.628-6.862-4.912-8.464a10.98,10.98,0,0,0-6.575-2.287,8.384,8.384,0,0,0-1.622.163l-.118.021a10.681,10.681,0,0,0-7.41,4.479c-4.447,5.886-6.688,11.407-6.688,16.447a31.406,31.406,0,0,0,.187,3.434C170.193,189.363,171.291,191.652,172.868,192.939Z" style="fill:#d61d2f"/><path d="M182.1,146.021a47.567,47.567,0,0,1,5.691.422q13.488,1.689,20.868,12.437,5.267,7.8,5.27,18.971a32.931,32.931,0,0,1-.211,3.583q-1.057,13.7-8.432,21.5a29.966,29.966,0,0,1-14.545,8.01A41.651,41.651,0,0,1,181.466,212a32.069,32.069,0,0,1-8.221-1.054q-12.648-3.37-17.917-14.755a32.162,32.162,0,0,1-.632-24.452,39.8,39.8,0,0,1,16.863-21.29q4.635-3.581,7.589-4.216a16.053,16.053,0,0,1,2.951-.211m-.632,51.223q7.8,0,12.015-2.951,4.213-2.738,5.691-9.275a25.317,25.317,0,0,0,.843-6.535,27.827,27.827,0,0,0-.843-6.745q-1.689-6.956-5.9-9.907a13.477,13.477,0,0,0-8.01-2.74,10.833,10.833,0,0,0-2.108.211,13.18,13.18,0,0,0-9.064,5.481q-7.17,9.486-7.167,17.917a33.9,33.9,0,0,0,.211,3.794q1.051,5.9,4.216,8.432,3.162,2.321,10.118,2.319m.632-56.223a20.564,20.564,0,0,0-3.922.306l-.038.008-.038.008c-2.69.576-5.776,2.218-9.429,5.018a44.829,44.829,0,0,0-18.71,23.769,41.241,41.241,0,0,0-2.373,13.412v.08l0,.08a40.936,40.936,0,0,0,3.118,14.4l.039.094.043.093c4.149,8.967,11.271,14.85,21.168,17.487A37.244,37.244,0,0,0,181.466,217a46.855,46.855,0,0,0,10.385-1.179l.064-.015.064-.016a35,35,0,0,0,16.907-9.385c5.718-6.044,9.008-14.278,9.81-24.505a37.992,37.992,0,0,0,.232-4.048c0-8.424-2.061-15.748-6.126-21.769-5.762-8.393-13.961-13.294-24.391-14.6a51.993,51.993,0,0,0-6.313-.46Zm-10.015,44.752a29.112,29.112,0,0,1-.162-3.074c0-4.484,2.071-9.5,6.156-14.9l.028-.037.027-.037a8.19,8.19,0,0,1,5.755-3.475l.119-.018.118-.023a5.875,5.875,0,0,1,1.137-.116,8.532,8.532,0,0,1,5.085,1.8l.028.02.028.02c1.772,1.242,3.089,3.595,3.914,6.993a23.022,23.022,0,0,1,.7,5.566,20.442,20.442,0,0,1-.675,5.25l-.024.09-.021.091c-.683,3.022-1.874,5.1-3.539,6.185l-.073.047-.071.05c-1.94,1.358-5.017,2.047-9.147,2.047-4.59,0-6.441-.862-7.078-1.292-1.046-.9-1.841-2.68-2.3-5.178Z" style="fill:#fff"/><path d="M272.106,216.186a10.6,10.6,0,0,1-7.375-2.761l-.082-.077c-1.527-1.523-3.975-4.82-7.481-10.08-3.623-5.384-5.594-7.98-6.646-9.231-.968,1.174-2.726,3.479-5.874,8.008-2.984,4.177-5.269,6.885-7,8.3a10.977,10.977,0,0,1-7.065,2.253c-7.1,0-8.092-4.762-8.188-6.809l0-.118c0-2.716,1.278-6.29,3.909-10.93a53.124,53.124,0,0,1,3.916-6.1c4.777-7.23,6.514-10.1,7.14-11.242a68.848,68.848,0,0,0-4.528-6.237c-3.6-4.53-5.358-8.536-5.377-12.231a6.846,6.846,0,0,1,1.583-5.208,5.414,5.414,0,0,1,4.075-1.6q.4,0,.837.042c3.107.2,6.747,2.116,11.122,5.864l.073.063.068.068c1.057,1.058,2.6,2.514,4.593,4.341q2.2-2.44,6.331-6.993c5.7-6.175,9.968-9.042,13.446-9.042a7.882,7.882,0,0,1,2.467.335l.294.1.262.165c5.375,3.4,1.616,11.705-1.678,17.658l-.068.116q-1.059,1.69-2.319,3.586c-1.278,2.168-3.179,5.243-5.657,9.155l8.339,12.13c5.976,8.965,8.871,15.417,8.871,19.755a6.307,6.307,0,0,1-5.019,6.421l-.147.034A14.039,14.039,0,0,1,272.106,216.186Z" style="fill:#d61d2f"/><path d="M269.577,148.972a5.545,5.545,0,0,1,1.686.211q4,2.53-2.529,14.334-1.057,1.689-2.319,3.583-2.111,3.586-6.535,10.54,2.316,3.375,9.275,13.491,8.429,12.648,8.432,18.339a3.811,3.811,0,0,1-3.162,4.005,11.722,11.722,0,0,1-2.319.211,8.137,8.137,0,0,1-5.691-2.108q-2.111-2.105-7.167-9.7-7.53-11.186-8.772-11.187a.218.218,0,0,0-.082.015q-1.057.213-7.8,9.907-4.218,5.9-6.535,7.8a8.5,8.5,0,0,1-5.481,1.686q-5.483,0-5.691-4.427,0-3.37,3.583-9.7a50.717,50.717,0,0,1,3.794-5.9q7.8-11.8,7.8-12.648,0-1.051-5.27-7.8-4.851-6.11-4.848-10.75-.2-4.25,3.159-4.251a6.117,6.117,0,0,1,.635.035q3.794.213,9.7,5.27,2.105,2.111,6.535,6.113,1.9-2.105,8.01-8.853,7.589-8.221,11.594-8.221m0-5c-4.284,0-8.993,3.032-15.268,9.829q-2.769,3.055-4.669,5.156-1.643-1.535-2.661-2.555l-.138-.139-.149-.127c-4.85-4.155-8.842-6.21-12.548-6.458-.352-.033-.7-.05-1.037-.05A7.858,7.858,0,0,0,227.223,152,9.2,9.2,0,0,0,224.949,159c.035,4.263,1.976,8.76,5.932,13.743,1.8,2.311,2.889,3.8,3.538,4.738-.932,1.546-2.743,4.422-6.256,9.743a55.811,55.811,0,0,0-4.066,6.341c-2.87,5.071-4.207,8.921-4.207,12.115v.117l.006.117c.209,4.444,3.126,9.192,10.686,9.192a13.394,13.394,0,0,0,8.6-2.783l.022-.018.022-.018c1.934-1.584,4.3-4.368,7.435-8.761l.018-.026.018-.026c1.642-2.36,2.886-4.089,3.825-5.353,1.075,1.458,2.555,3.552,4.575,6.554,4.779,7.169,6.732,9.4,7.784,10.444l.08.08.083.076a13.2,13.2,0,0,0,9.059,3.412,16.555,16.555,0,0,0,3.309-.31l.148-.03.146-.039a8.764,8.764,0,0,0,6.877-8.837c0-4.913-2.946-11.621-9.271-21.112l-.02-.03-.02-.03-4.659-6.776-2.746-3.994c2.047-3.248,3.651-5.853,4.783-7.771.826-1.241,1.606-2.448,2.32-3.589l.071-.113.065-.117c2.181-3.94,8.818-15.931.826-20.982l-.522-.33-.586-.193a10.3,10.3,0,0,0-3.25-.462Z" style="fill:#fff"/></g></g></svg>