<svg xmlns="http://www.w3.org/2000/svg" viewBox="0 0 480.079 226.108"><title>gbsn-logo</title><g id="Layer_2" data-name="Layer 2"><g id="Camada_1" data-name="Camada 1"><path d="M118.07,184.226h5.016l1.1,9.733c1.7-3.466,6.048-10.47,10.62-10.47a19.8,19.8,0,0,1,5.97.81v5.677a22.475,22.475,0,0,0-5.013-.663c-3.981,0-8.406,7.078-11.577,13.419v22.489h-6.12Z" style="fill:#fff"/><path d="M161.643,205.167c.147,11.206,4.938,15.04,12.9,15.04a28.268,28.268,0,0,0,14.3-3.465v6.12a36.977,36.977,0,0,1-14.45,2.875c-11.136,0-18.8-6.562-18.8-21.161,0-13.272,7.965-21.086,17.621-21.086s17.255,7.3,17.255,18.875v2.8Zm.369-4.645h22.634c-.369-5.677-5.382-11.65-11.43-11.65C167.025,188.872,163.116,194.107,162.012,200.522Z" style="fill:#fff"/><path d="M205.73,215.71c3.1,2.653,9.954,4.645,15.041,4.645,6.561,0,11.28-2.508,11.28-7.152,0-3.982-3.687-6.489-10.617-6.489-10.248,0-15.482-3.613-15.482-11.134,0-6.931,5.823-12.313,15.26-12.313,4.794,0,10.545,1.18,13.716,2.8v6.12c-3.318-2.286-9.513-3.687-13.788-3.687-5.751,0-9.366,2.8-9.366,6.784,0,3.391,1.917,6.193,10.839,6.193,9.66,0,15.338,4.2,15.338,11.649,0,7.89-6.858,12.609-17.108,12.609-5.16,0-11.574-1.474-15.113-3.465Z" style="fill:#fff"/><path d="M259.551,205.167c.147,11.206,4.938,15.04,12.9,15.04a28.268,28.268,0,0,0,14.3-3.465v6.12a36.977,36.977,0,0,1-14.45,2.875c-11.136,0-18.8-6.562-18.8-21.161,0-13.272,7.965-21.086,17.621-21.086s17.255,7.3,17.255,18.875v2.8Zm.369-4.645h22.634c-.369-5.677-5.382-11.65-11.43-11.65C264.933,188.872,261.024,194.107,259.92,200.522Z" style="fill:#fff"/><path d="M339.03,221.757l-3.834,4.128a10.334,10.334,0,0,1-4.425-5.6c-3.024,2.875-7.743,5.455-12.24,5.455-8.7,0-14.894-3.391-14.894-10.617,0-6.489,4.869-12.388,15.263-12.609,3.1-.073,8.037,0,11.061.147,0-2.58.072-4.572.072-4.866-.147-5.751-3.537-8.7-7.3-8.7a30.308,30.308,0,0,0-15.7,4.867v-6.046a32.107,32.107,0,0,1,15.779-4.423c7.446,0,12.975,5.013,12.975,14.6v16.369C335.784,217.923,337.113,220.356,339.03,221.757Zm-8.922-6.268c-.147-2.58-.222-5.6-.222-8.479-2.286-.073-6.414-.073-10.764.075-7.374.22-9.513,4.35-9.513,7.446,0,4.645,3.54,6.12,9.216,6.12C322.366,220.65,326.715,218.439,330.108,215.488Z" style="fill:#fff"/><path d="M355.835,184.226h5.013l1.107,9.733c1.695-3.466,6.045-10.47,10.617-10.47a19.819,19.819,0,0,1,5.973.81v5.677a22.51,22.51,0,0,0-5.013-.663c-3.984,0-8.406,7.078-11.577,13.419v22.489h-6.12Z" style="fill:#fff"/><path d="M425.949,220.5c-3.243,3.613-8.847,5.235-14.156,5.235-12.312,0-18.431-7.815-18.431-21.161,0-12.829,8.406-21.086,18.431-21.086a18.611,18.611,0,0,1,13.863,6.045l-4.425,4.056a12.066,12.066,0,0,0-9.291-4.572c-7.74,0-12.459,6.489-12.459,15.484,0,9.364,4.644,15.853,12.312,15.853,4.278,0,8.112-1.843,9.882-4.129Z" style="fill:#fff"/><path d="M449.687,194.623v30.6h-6.12V167.711h6.12v21.161a19.41,19.41,0,0,1,12.9-5.457c11.136,0,14.6,8.185,14.6,19.391v22.415h-6.12V202.733c0-8.257-3.1-13.861-8.628-13.861A17.151,17.151,0,0,0,449.687,194.623Z" style="fill:#fff"/><path d="M0,148.474A22.268,22.268,0,0,1,2.211,138.19a30.086,30.086,0,0,1,12.276-12.717q3.649-1.993,6.525-3.318Q8.182,113.309,8.184,98.268a26.314,26.314,0,0,1,3.759-13.935,37.108,37.108,0,0,1,9.51-10.506A42.52,42.52,0,0,1,34.172,67.3a44.294,44.294,0,0,1,13.38-2.211,34.854,34.854,0,0,1,17.141,3.981,48.444,48.444,0,0,1,10.506,7.3,26.128,26.128,0,0,1,7.188-7.74,19.284,19.284,0,0,1,11.835-3.54,18.087,18.087,0,0,1,8.184,1.881q3.757,1.881,3.759,8.073a7.116,7.116,0,0,1-2.544,5.97,8.356,8.356,0,0,1-5.2,1.992q-3.1,0-4.422-1.77a24.042,24.042,0,0,1-2.322-3.759q-1-1.993-2.1-3.762a3.666,3.666,0,0,0-3.318-1.767,7.278,7.278,0,0,0-4.533,1.878,22.683,22.683,0,0,0-4.092,4.314,49.407,49.407,0,0,1,5.088,7.521q3.091,5.305,3.1,13.269A23.2,23.2,0,0,1,82.5,111.1a35.2,35.2,0,0,1-8.736,9.732,40.87,40.87,0,0,1-12.609,6.525,47.5,47.5,0,0,1-14.708,2.325,39.212,39.212,0,0,1-13.494-2.1,88.639,88.639,0,0,1-8.844-3.648q-2.439,1.107-5.2,2.433a23.125,23.125,0,0,0-5.088,3.318,17.339,17.339,0,0,0-3.87,4.755,12.656,12.656,0,0,0-1.551,6.3,10.582,10.582,0,0,0,1.329,5.529,8.658,8.658,0,0,0,3.429,3.318,15.515,15.515,0,0,0,4.755,1.548,33.365,33.365,0,0,0,5.529.444H58.39q15.479,0,24.662,7.41t9.18,23.333a37.347,37.347,0,0,1-4.2,17.693A45.99,45.99,0,0,1,76.86,213.832,51.233,51.233,0,0,1,60.823,222.9a55.4,55.4,0,0,1-18.578,3.207,59.031,59.031,0,0,1-15.812-1.992,45.012,45.012,0,0,1-12.5-5.418A26.21,26.21,0,0,1,5.64,210.4a20.316,20.316,0,0,1-2.985-10.836,23.6,23.6,0,0,1,2.322-10.506,31.074,31.074,0,0,1,5.97-8.406,39.032,39.032,0,0,1,8.3-6.3,66.2,66.2,0,0,1,9.288-4.425v-.441q-14.6,0-21.563-4.758T0,148.474Zm33.176,21.014q-2.875,1.764-5.862,3.648a21.56,21.56,0,0,0-5.307,4.755,23.684,23.684,0,0,0-3.759,6.747,27.785,27.785,0,0,0-1.44,9.621q0,7.965,2.766,13.161a24.786,24.786,0,0,0,7.08,8.406,26.91,26.91,0,0,0,9.618,4.533,42.75,42.75,0,0,0,10.4,1.326,41.183,41.183,0,0,0,14.486-2.433,36.912,36.912,0,0,0,11.28-6.525,28.736,28.736,0,0,0,7.3-9.4,25.356,25.356,0,0,0,2.544-11.058q0-12.393-6.747-17.585t-18.467-5.2ZM69.007,97.6a81.4,81.4,0,0,0-.663-10.284,30.39,30.39,0,0,0-2.763-9.513,16.678,16.678,0,0,0-6.414-6.966q-4.315-2.655-11.616-2.655-11.277,0-17.027,6.858T24.77,97.6a65.141,65.141,0,0,0,1,11.943,23.773,23.773,0,0,0,3.651,9.18,16.671,16.671,0,0,0,7.077,5.862,27.625,27.625,0,0,0,11.28,1.989q11.5,0,16.367-7.188T69.007,97.6Z" style="fill:#fff"/><path d="M115.8,156.372h17.03V3.1H115.8V0h36.053V82.278h.441a32.337,32.337,0,0,1,10.617-14.6q7.519-5.971,19.685-5.973A40.446,40.446,0,0,1,200.516,65.8a50.822,50.822,0,0,1,24.992,26.653,50.128,50.128,0,0,1-.111,38.373,54.436,54.436,0,0,1-10.506,16.256,51.407,51.407,0,0,1-15.371,11.281,42.119,42.119,0,0,1-18.467,4.2,28.761,28.761,0,0,1-12.717-2.542,30.492,30.492,0,0,1-8.628-6.082,27.128,27.128,0,0,1-5.2-7.3,59.6,59.6,0,0,1-2.655-6.415h-.444v19.243H115.8Zm91.347-47.553a135.41,135.41,0,0,0-1.107-18.248,46.537,46.537,0,0,0-3.87-13.824,20.7,20.7,0,0,0-7.743-8.847q-4.972-3.094-12.717-3.1-8.185,0-13.491,2.875a26.185,26.185,0,0,0-8.628,7.3,27.4,27.4,0,0,0-3.87,6.634,42.682,42.682,0,0,0-2.322,8.406,89.171,89.171,0,0,0-1.218,11.169q-.328,6.3-.33,14.93a106.2,106.2,0,0,0,1.1,15.04,46.518,46.518,0,0,0,4.2,14.044,26.872,26.872,0,0,0,8.739,10.285q5.638,3.98,14.927,3.981,9.067,0,14.375-3.538a21.348,21.348,0,0,0,7.965-10.174,53.494,53.494,0,0,0,3.318-16.036Q207.15,120.322,207.152,108.82Z" style="fill:#fff"/><path d="M260.895,128.5h2.433a81.784,81.784,0,0,0,3.981,10.728,37.855,37.855,0,0,0,6.525,9.952,32.081,32.081,0,0,0,10.062,7.41,32.866,32.866,0,0,0,14.378,2.875,19.948,19.948,0,0,0,12.606-4.312q5.526-4.313,5.529-14.046,0-8.4-4.311-11.833a33.822,33.822,0,0,0-10.065-5.418l-17.252-5.973q-3.316-1.1-7.188-2.764a25.968,25.968,0,0,1-7.188-4.645,22.656,22.656,0,0,1-5.421-7.63,29.136,29.136,0,0,1-2.1-11.943,27.263,27.263,0,0,1,2.433-11.5,29.318,29.318,0,0,1,16.7-15.482,35.775,35.775,0,0,1,12.717-2.212,32.3,32.3,0,0,1,7.851.775q2.988.776,5.2,1.548t3.981,1.548a10.368,10.368,0,0,0,4.2.774,3.856,3.856,0,0,0,3.537-1.77h2.433V89.8H319.5a95.652,95.652,0,0,0-3.537-9.4,37.819,37.819,0,0,0-4.755-8.073,19.374,19.374,0,0,0-6.858-5.529,21.772,21.772,0,0,0-9.621-1.99q-10.615,0-16.478,4.755a15.539,15.539,0,0,0-5.862,12.718q0,7.08,4.977,10.726t14.708,6.747l16.145,5.308a46.568,46.568,0,0,1,17.03,9.732q6.637,6.194,6.636,16.367a31.05,31.05,0,0,1-2.322,11.722,28.451,28.451,0,0,1-6.858,10.063,34.983,34.983,0,0,1-11.058,6.967,39.356,39.356,0,0,1-14.93,2.653,37.907,37.907,0,0,1-8.958-.994q-4.095-1-7.518-2.1t-6.306-2.1a16.337,16.337,0,0,0-5.307-.994,5.209,5.209,0,0,0-3.54.994,9.221,9.221,0,0,0-1.767,2.1h-2.433Z" style="fill:#fff"/><path d="M356,156.372h17.033V67.681H356v-3.1h35.612V88.249h.441q1.327-2.871,3.87-7.3a38.493,38.493,0,0,1,6.969-8.626,37.874,37.874,0,0,1,27.2-10.174q14.6,0,23.777,7.078t9.18,22.559v64.585h17.03v3.1H427v-3.1h17.03V84.931q0-8.626-4.092-14.155t-12.717-5.529a30.671,30.671,0,0,0-13.494,3.1,35.489,35.489,0,0,0-11.28,8.626,40.891,40.891,0,0,0-7.629,13.05,47.055,47.055,0,0,0-2.766,16.367v49.986h17.03v3.1H356Z" style="fill:#fff"/></g></g></svg>