<svg xmlns="http://www.w3.org/2000/svg" viewBox="0 0 500 500"><title>gbsn-dark-square</title><g id="Layer_2" data-name="Layer 2"><g id="Layer_1-2" data-name="Layer 1"><rect x="35.907" y="131.799" width="426.829" height="239.248" style="fill:#fff"/><rect width="500" height="500" style="fill:#1d1d1b"/><path d="M153.191,306.491h3.981l.876,7.725c1.348-2.751,4.8-8.31,8.429-8.31a15.714,15.714,0,0,1,4.738.643v4.506a17.839,17.839,0,0,0-3.979-.526c-3.16,0-6.672,5.618-9.188,10.65v17.85h-4.857Z" style="fill:#fff"/><path d="M187.776,323.111c.117,8.894,3.919,11.937,10.241,11.937a22.437,22.437,0,0,0,11.353-2.75v4.857a29.349,29.349,0,0,1-11.47,2.282c-8.838,0-14.924-5.209-14.924-16.8,0-10.534,6.322-16.736,13.986-16.736s13.7,5.793,13.7,14.982v2.224Zm.293-3.687h17.965c-.293-4.506-4.272-9.247-9.072-9.247C192.048,310.178,188.945,314.333,188.069,319.424Z" style="fill:#fff"/><path d="M222.768,331.48c2.457,2.106,7.9,3.687,11.939,3.687,5.207,0,8.953-1.991,8.953-5.676,0-3.161-2.926-5.15-8.427-5.15-8.134,0-12.289-2.868-12.289-8.837,0-5.5,4.622-9.773,12.112-9.773a27.259,27.259,0,0,1,10.886,2.224v4.857c-2.633-1.814-7.55-2.926-10.943-2.926-4.564,0-7.434,2.224-7.434,5.385,0,2.692,1.521,4.916,8.6,4.916,7.667,0,12.174,3.336,12.174,9.246,0,6.262-5.443,10.008-13.579,10.008a27.892,27.892,0,0,1-12-2.75Z" style="fill:#fff"/><path d="M265.486,323.111c.117,8.894,3.919,11.937,10.241,11.937a22.437,22.437,0,0,0,11.353-2.75v4.857a29.349,29.349,0,0,1-11.47,2.282c-8.838,0-14.924-5.209-14.924-16.8,0-10.534,6.322-16.736,13.986-16.736s13.7,5.793,13.7,14.982v2.224Zm.293-3.687h17.965c-.293-4.506-4.272-9.247-9.072-9.247C269.758,310.178,266.655,314.333,265.779,319.424Z" style="fill:#fff"/><path d="M328.57,336.279l-3.043,3.276a8.2,8.2,0,0,1-3.512-4.447c-2.4,2.282-6.146,4.33-9.715,4.33-6.905,0-11.822-2.692-11.822-8.427,0-5.15,3.864-9.833,12.115-10.008,2.457-.058,6.379,0,8.779.117,0-2.048.057-3.629.057-3.862-.117-4.564-2.807-6.906-5.793-6.906a24.056,24.056,0,0,0-12.465,3.863v-4.8a25.484,25.484,0,0,1,12.524-3.511c5.91,0,10.3,3.979,10.3,11.586v12.992A6.841,6.841,0,0,0,328.57,336.279Zm-7.081-4.975c-.117-2.048-.176-4.447-.176-6.73-1.814-.058-5.091-.058-8.543.06-5.853.175-7.55,3.453-7.55,5.91,0,3.687,2.81,4.857,7.315,4.857C315.343,335.4,318.8,333.645,321.489,331.3Z" style="fill:#fff"/><path d="M341.909,306.491h3.979l.879,7.725c1.345-2.751,4.8-8.31,8.427-8.31a15.73,15.73,0,0,1,4.741.643v4.506a17.866,17.866,0,0,0-3.979-.526c-3.162,0-6.672,5.618-9.188,10.65v17.85h-4.857Z" style="fill:#fff"/><path d="M397.559,335.283c-2.574,2.868-7.022,4.155-11.236,4.155-9.772,0-14.629-6.2-14.629-16.8,0-10.183,6.672-16.736,14.629-16.736a14.772,14.772,0,0,1,11,4.8l-3.512,3.219a9.577,9.577,0,0,0-7.374-3.629c-6.143,0-9.889,5.15-9.889,12.29,0,7.432,3.686,12.583,9.772,12.583,3.4,0,6.438-1.463,7.843-3.278Z" style="fill:#fff"/><path d="M416.4,314.742v24.287h-4.857V293.382H416.4v16.8a15.406,15.406,0,0,1,10.241-4.331c8.838,0,11.589,6.5,11.589,15.391v17.791h-4.857v-17.85c0-6.554-2.46-11-6.848-11A13.613,13.613,0,0,0,416.4,314.742Z" style="fill:#fff"/><path d="M59.478,278.113a17.674,17.674,0,0,1,1.755-8.162,23.879,23.879,0,0,1,9.743-10.093q2.9-1.582,5.179-2.633-10.183-7.022-10.181-18.96a20.886,20.886,0,0,1,2.983-11.06,29.453,29.453,0,0,1,7.548-8.338,33.748,33.748,0,0,1,10.1-5.179,35.157,35.157,0,0,1,10.62-1.755,27.664,27.664,0,0,1,13.605,3.16,38.451,38.451,0,0,1,8.338,5.793,20.738,20.738,0,0,1,5.705-6.143,15.306,15.306,0,0,1,9.393-2.81,14.356,14.356,0,0,1,6.5,1.493q2.982,1.493,2.983,6.407a5.648,5.648,0,0,1-2.019,4.738,6.633,6.633,0,0,1-4.124,1.581,4.1,4.1,0,0,1-3.51-1.4,19.082,19.082,0,0,1-1.843-2.983q-.793-1.582-1.669-2.986a2.91,2.91,0,0,0-2.633-1.4,5.777,5.777,0,0,0-3.6,1.491,18,18,0,0,0-3.248,3.424,39.215,39.215,0,0,1,4.038,5.969,20.651,20.651,0,0,1,2.457,10.531,18.414,18.414,0,0,1-2.633,9.655,27.94,27.94,0,0,1-6.934,7.724,32.439,32.439,0,0,1-10.008,5.179,37.7,37.7,0,0,1-11.674,1.845,31.123,31.123,0,0,1-10.71-1.669,70.354,70.354,0,0,1-7.019-2.9q-1.936.879-4.126,1.931a18.355,18.355,0,0,0-4.038,2.633,13.762,13.762,0,0,0-3.072,3.774,10.045,10.045,0,0,0-1.231,5,8.4,8.4,0,0,0,1.055,4.388,6.872,6.872,0,0,0,2.722,2.633A12.315,12.315,0,0,0,73.7,280.22a26.482,26.482,0,0,0,4.388.352h27.737q12.286,0,19.575,5.881t7.286,18.52a29.643,29.643,0,0,1-3.336,14.043,36.5,36.5,0,0,1-8.865,10.972,40.664,40.664,0,0,1-12.729,7.2,43.972,43.972,0,0,1-14.746,2.545,46.854,46.854,0,0,1-12.551-1.581,35.726,35.726,0,0,1-9.919-4.3,20.8,20.8,0,0,1-6.584-6.584,16.125,16.125,0,0,1-2.369-8.6,18.734,18.734,0,0,1,1.843-8.338,24.664,24.664,0,0,1,4.738-6.672,30.98,30.98,0,0,1,6.586-5,52.547,52.547,0,0,1,7.372-3.512v-.35q-11.586,0-17.115-3.776T59.478,278.113ZM85.81,294.792q-2.282,1.4-4.653,2.9a17.112,17.112,0,0,0-4.212,3.774,18.8,18.8,0,0,0-2.983,5.355A26,26,0,0,0,75.014,324.9a19.673,19.673,0,0,0,5.619,6.672,21.359,21.359,0,0,0,7.634,3.6,33.931,33.931,0,0,0,8.253,1.052,32.688,32.688,0,0,0,11.5-1.931,29.3,29.3,0,0,0,8.953-5.179,22.808,22.808,0,0,0,5.793-7.46,20.126,20.126,0,0,0,2.019-8.777q0-9.836-5.355-13.958t-14.658-4.124Zm28.439-57.055a64.612,64.612,0,0,0-.526-8.162,24.121,24.121,0,0,0-2.193-7.55,13.238,13.238,0,0,0-5.091-5.529q-3.425-2.107-9.219-2.107-8.95,0-13.515,5.443t-4.567,17.906a51.7,51.7,0,0,0,.791,9.479,18.869,18.869,0,0,0,2.9,7.286,13.232,13.232,0,0,0,5.617,4.653,21.926,21.926,0,0,0,8.953,1.579q9.129,0,12.991-5.705T114.249,237.738Z" style="fill:#fff"/><path d="M151.393,284.382h13.517V162.726H151.393v-2.458h28.616v65.305h.35a25.666,25.666,0,0,1,8.427-11.586q5.968-4.739,15.624-4.741a32.1,32.1,0,0,1,14.22,3.248,40.338,40.338,0,0,1,19.837,21.154,39.788,39.788,0,0,1-.088,30.457,43.207,43.207,0,0,1-8.338,12.9,40.8,40.8,0,0,1-12.2,8.954,33.43,33.43,0,0,1-14.658,3.335,22.828,22.828,0,0,1-10.093-2.018,24.2,24.2,0,0,1-6.848-4.828,21.532,21.532,0,0,1-4.124-5.793,47.309,47.309,0,0,1-2.107-5.092h-.352V286.84H151.393Zm72.5-37.743a107.477,107.477,0,0,0-.879-14.484,36.937,36.937,0,0,0-3.072-10.972,16.431,16.431,0,0,0-6.146-7.022,18.835,18.835,0,0,0-10.093-2.457A22.34,22.34,0,0,0,193,213.987a20.783,20.783,0,0,0-6.848,5.793,21.748,21.748,0,0,0-3.072,5.266,33.877,33.877,0,0,0-1.843,6.672,70.776,70.776,0,0,0-.967,8.865q-.261,5-.262,11.851a84.3,84.3,0,0,0,.876,11.937,36.922,36.922,0,0,0,3.336,11.147,21.328,21.328,0,0,0,6.936,8.163q4.475,3.159,11.848,3.16,7.2,0,11.41-2.808a16.944,16.944,0,0,0,6.322-8.075,42.459,42.459,0,0,0,2.633-12.728Q223.9,255.769,223.9,246.639Z" style="fill:#fff"/><path d="M266.553,262.262h1.931a64.913,64.913,0,0,0,3.16,8.515,30.046,30.046,0,0,0,5.179,7.9,25.463,25.463,0,0,0,7.986,5.881,26.086,26.086,0,0,0,11.412,2.282,15.833,15.833,0,0,0,10.005-3.423q4.386-3.423,4.388-11.148,0-6.67-3.422-9.392a26.845,26.845,0,0,0-7.988-4.3l-13.693-4.741q-2.632-.875-5.705-2.194a20.611,20.611,0,0,1-5.705-3.687,17.983,17.983,0,0,1-4.3-6.056,23.126,23.126,0,0,1-1.667-9.479,21.639,21.639,0,0,1,1.931-9.129A23.27,23.27,0,0,1,283.318,211a28.4,28.4,0,0,1,10.093-1.756,25.635,25.635,0,0,1,6.231.616q2.372.616,4.126,1.229t3.16,1.229a8.229,8.229,0,0,0,3.336.614,3.061,3.061,0,0,0,2.807-1.4H315v20.013h-1.931a75.921,75.921,0,0,0-2.807-7.461,30.017,30.017,0,0,0-3.774-6.407,15.378,15.378,0,0,0-5.443-4.388,17.281,17.281,0,0,0-7.636-1.58q-8.425,0-13.079,3.774a12.334,12.334,0,0,0-4.653,10.094q0,5.62,3.95,8.513t11.674,5.355l12.815,4.213a36.961,36.961,0,0,1,13.517,7.724q5.268,4.916,5.267,12.991a24.645,24.645,0,0,1-1.843,9.3,22.582,22.582,0,0,1-5.443,7.987,27.766,27.766,0,0,1-8.777,5.53A31.237,31.237,0,0,1,294.99,289.3a30.088,30.088,0,0,1-7.11-.789q-3.25-.791-5.967-1.668t-5-1.668a12.967,12.967,0,0,0-4.212-.789,4.134,4.134,0,0,0-2.81.789,7.319,7.319,0,0,0-1.4,1.668h-1.931Z" style="fill:#fff"/><path d="M342.037,284.382h13.52v-70.4h-13.52v-2.458H370.3v18.784h.35q1.054-2.279,3.072-5.793a30.553,30.553,0,0,1,5.531-6.847,30.061,30.061,0,0,1,21.591-8.075q11.586,0,18.872,5.618t7.286,17.906v51.262h13.517v2.457H398.39v-2.457h13.517v-56.7q0-6.847-3.248-11.235t-10.093-4.388a24.344,24.344,0,0,0-10.71,2.457,28.168,28.168,0,0,0-8.953,6.847,32.456,32.456,0,0,0-6.055,10.358,37.348,37.348,0,0,0-2.2,12.991v39.674H384.17v2.457H342.037Z" style="fill:#fff"/></g></g></svg>