<svg xmlns="http://www.w3.org/2000/svg" viewBox="0 0 873.186 341.757"><title>labs_horizontal</title><g id="Layer_2" data-name="Layer 2"><g id="Layer_1-2" data-name="Layer 1"><rect x="531.429" width="341.757" height="341.757" style="fill:#293241"/><path d="M671.652,240.55a7.558,7.558,0,0,1,.751-3.49,10.108,10.108,0,0,1,1.838-2.552,10.209,10.209,0,0,1,2.327-1.763q1.239-.676,2.215-1.126a9.366,9.366,0,0,1-4.353-8.107,8.925,8.925,0,0,1,1.275-4.728,12.6,12.6,0,0,1,3.227-3.566A14.439,14.439,0,0,1,683.249,213a15.027,15.027,0,0,1,4.54-.75,11.827,11.827,0,0,1,5.817,1.351,16.4,16.4,0,0,1,3.565,2.477,8.871,8.871,0,0,1,2.44-2.627,6.543,6.543,0,0,1,4.016-1.2,6.145,6.145,0,0,1,2.777.638q1.275.639,1.276,2.74a2.416,2.416,0,0,1-.864,2.026,2.834,2.834,0,0,1-1.763.676,1.753,1.753,0,0,1-1.5-.6,8.185,8.185,0,0,1-.788-1.276c-.226-.451-.464-.875-.713-1.276a1.245,1.245,0,0,0-1.126-.6,2.471,2.471,0,0,0-1.538.637A7.712,7.712,0,0,0,698,216.682a16.787,16.787,0,0,1,1.727,2.553,8.829,8.829,0,0,1,1.05,4.5,7.865,7.865,0,0,1-1.126,4.128,11.943,11.943,0,0,1-2.964,3.3,13.861,13.861,0,0,1-4.279,2.214,16.129,16.129,0,0,1-4.991.789,13.3,13.3,0,0,1-4.58-.714,30.128,30.128,0,0,1-3-1.237q-.826.375-1.764.825a7.827,7.827,0,0,0-1.726,1.126,5.874,5.874,0,0,0-1.314,1.614,4.3,4.3,0,0,0-.526,2.139,3.594,3.594,0,0,0,.451,1.876,2.936,2.936,0,0,0,1.164,1.126,5.273,5.273,0,0,0,1.613.525,11.3,11.3,0,0,0,1.876.151h11.859a12.944,12.944,0,0,1,8.37,2.514q3.113,2.514,3.115,7.918a12.686,12.686,0,0,1-1.426,6,15.616,15.616,0,0,1-3.791,4.691,17.38,17.38,0,0,1-5.442,3.077,18.8,18.8,0,0,1-6.3,1.089,20.036,20.036,0,0,1-5.366-.676,15.262,15.262,0,0,1-4.241-1.839,8.9,8.9,0,0,1-2.815-2.815,6.892,6.892,0,0,1-1.013-3.677,8.013,8.013,0,0,1,.788-3.565,10.563,10.563,0,0,1,2.026-2.852,13.214,13.214,0,0,1,2.816-2.139,22.422,22.422,0,0,1,3.152-1.5v-.15q-4.955,0-7.318-1.614T671.652,240.55Zm11.259,7.131q-.976.6-1.989,1.238a7.312,7.312,0,0,0-1.8,1.614,8.025,8.025,0,0,0-1.276,2.289,11.113,11.113,0,0,0,.45,7.731,8.4,8.4,0,0,0,2.4,2.853,9.12,9.12,0,0,0,3.263,1.538,14.534,14.534,0,0,0,3.529.45,13.969,13.969,0,0,0,4.916-.826,12.5,12.5,0,0,0,3.828-2.214,9.761,9.761,0,0,0,2.477-3.189,8.612,8.612,0,0,0,.863-3.753q0-4.2-2.29-5.967a10.031,10.031,0,0,0-6.267-1.764Zm12.159-24.394a27.542,27.542,0,0,0-.225-3.489,10.315,10.315,0,0,0-.937-3.229,5.671,5.671,0,0,0-2.177-2.364,7.483,7.483,0,0,0-3.942-.9,7.113,7.113,0,0,0-5.778,2.327q-1.953,2.326-1.953,7.655a22.1,22.1,0,0,0,.338,4.053,8.075,8.075,0,0,0,1.239,3.115,5.658,5.658,0,0,0,2.4,1.99,9.389,9.389,0,0,0,3.828.674q3.9,0,5.554-2.439T695.07,223.287Z" style="fill:#fff"/><path d="M710.951,243.231h5.78V191.216h-5.78v-1.051h12.235v27.921h.15a10.969,10.969,0,0,1,3.6-4.954,10.427,10.427,0,0,1,6.68-2.026,13.726,13.726,0,0,1,6.08,1.388,17.244,17.244,0,0,1,8.481,9.045,17.016,17.016,0,0,1-.038,13.022,18.468,18.468,0,0,1-3.565,5.517,17.449,17.449,0,0,1-5.216,3.828,14.291,14.291,0,0,1-6.267,1.426,9.756,9.756,0,0,1-4.316-.863,10.35,10.35,0,0,1-2.928-2.064,9.219,9.219,0,0,1-1.763-2.477,20.353,20.353,0,0,1-.9-2.177h-.151v6.53H710.951Zm31-16.138a46.008,46.008,0,0,0-.376-6.192,15.825,15.825,0,0,0-1.313-4.692,7.031,7.031,0,0,0-2.628-3,8.051,8.051,0,0,0-4.315-1.05,9.55,9.55,0,0,0-4.578.975,8.891,8.891,0,0,0-2.928,2.477,9.31,9.31,0,0,0-1.314,2.252,14.56,14.56,0,0,0-.788,2.852,30.32,30.32,0,0,0-.413,3.79q-.111,2.141-.112,5.067a35.963,35.963,0,0,0,.375,5.1,15.784,15.784,0,0,0,1.426,4.766,9.115,9.115,0,0,0,2.966,3.49,10.334,10.334,0,0,0,9.944.15,7.246,7.246,0,0,0,2.7-3.452,18.181,18.181,0,0,0,1.126-5.442Q741.95,231,741.951,227.093Z" style="fill:#fff"/><path d="M760.189,233.773h.825a27.705,27.705,0,0,0,1.351,3.641,12.878,12.878,0,0,0,2.214,3.377,10.889,10.889,0,0,0,3.415,2.514,11.151,11.151,0,0,0,4.879.976,6.767,6.767,0,0,0,4.278-1.463q1.875-1.464,1.876-4.767,0-2.851-1.463-4.015a11.456,11.456,0,0,0-3.415-1.839l-5.855-2.027c-.75-.249-1.565-.563-2.439-.938a8.8,8.8,0,0,1-2.439-1.576,7.7,7.7,0,0,1-1.84-2.59,9.889,9.889,0,0,1-.713-4.052,9.251,9.251,0,0,1,.826-3.9,9.954,9.954,0,0,1,5.667-5.254,12.151,12.151,0,0,1,4.316-.75,10.968,10.968,0,0,1,2.664.263q1.014.263,1.764.525t1.351.525a3.523,3.523,0,0,0,1.427.263,1.31,1.31,0,0,0,1.2-.6h.825v8.557h-.825a32.382,32.382,0,0,0-1.2-3.19,12.854,12.854,0,0,0-1.614-2.74,6.589,6.589,0,0,0-2.327-1.876,7.4,7.4,0,0,0-3.265-.675,8.658,8.658,0,0,0-5.592,1.613,5.273,5.273,0,0,0-1.989,4.316,4.227,4.227,0,0,0,1.689,3.64,17.684,17.684,0,0,0,4.991,2.29l5.479,1.8a15.789,15.789,0,0,1,5.779,3.3,7.237,7.237,0,0,1,2.252,5.554,10.525,10.525,0,0,1-.788,3.978,9.651,9.651,0,0,1-2.327,3.415,11.853,11.853,0,0,1-3.752,2.364,13.352,13.352,0,0,1-5.067.9,12.858,12.858,0,0,1-3.04-.338q-1.389-.338-2.551-.713t-2.14-.713a5.544,5.544,0,0,0-1.8-.337,1.766,1.766,0,0,0-1.2.337,3.134,3.134,0,0,0-.6.713h-.825Z" style="fill:#fff"/><path d="M792.462,243.231h5.781v-30.1h-5.781v-1.051h12.085v8.032h.15q.45-.975,1.313-2.477a13.073,13.073,0,0,1,2.365-2.928,12.849,12.849,0,0,1,9.231-3.452,12.842,12.842,0,0,1,8.069,2.4q3.114,2.4,3.116,7.655v21.918h5.779v1.05H816.556v-1.05h5.779V218.987a7.871,7.871,0,0,0-1.388-4.8,5.018,5.018,0,0,0-4.316-1.876,10.422,10.422,0,0,0-4.579,1.05,12.059,12.059,0,0,0-3.828,2.928,13.906,13.906,0,0,0-2.589,4.428,15.975,15.975,0,0,0-.938,5.555v16.963h5.779v1.05H792.462Z" style="fill:#fff"/><path d="M570.046,243.232h5.779V191.216h-5.779v-1.051h12.235v27.922h.149a10.984,10.984,0,0,1,3.6-4.954,10.423,10.423,0,0,1,6.68-2.027,13.724,13.724,0,0,1,6.08,1.389,17.251,17.251,0,0,1,8.482,9.045,17.016,17.016,0,0,1-.038,13.022,18.5,18.5,0,0,1-3.565,5.518,17.446,17.446,0,0,1-5.216,3.827,14.281,14.281,0,0,1-6.268,1.426,9.759,9.759,0,0,1-4.316-.863,10.328,10.328,0,0,1-2.928-2.063,9.207,9.207,0,0,1-1.763-2.478,19.906,19.906,0,0,1-.9-2.176h-.151v6.53H570.046Zm31-16.138a46.046,46.046,0,0,0-.375-6.193,15.817,15.817,0,0,0-1.314-4.691,7.029,7.029,0,0,0-2.627-3,8.057,8.057,0,0,0-4.316-1.05,9.553,9.553,0,0,0-4.578.975,8.9,8.9,0,0,0-2.928,2.477,9.286,9.286,0,0,0-1.313,2.251,14.518,14.518,0,0,0-.789,2.853,30.312,30.312,0,0,0-.412,3.79q-.114,2.141-.112,5.067a35.959,35.959,0,0,0,.374,5.1,15.785,15.785,0,0,0,1.427,4.766,9.12,9.12,0,0,0,2.964,3.49,10.334,10.334,0,0,0,9.946.151,7.241,7.241,0,0,0,2.7-3.453,18.1,18.1,0,0,0,1.125-5.442Q601.046,231,601.045,227.094Z" style="fill:#fff"/><path d="M610.951,212.082h18.39v1.051h-6.305l9.683,23.569,10.132-23.569h-6.229v-1.051h11.484v1.051h-4.053l-12.385,28.973q-1.427,3.228-2.7,6.492t-2.553,6.568a48.606,48.606,0,0,1-2.1,4.729,15.521,15.521,0,0,1-2.214,3.3,8.134,8.134,0,0,1-2.514,1.914,7.336,7.336,0,0,1-3.153.638,7.665,7.665,0,0,1-3.49-.676,6.49,6.49,0,0,1-2.064-1.576,4.524,4.524,0,0,1-.976-1.876,7.575,7.575,0,0,1-.225-1.652,3.583,3.583,0,0,1,1.05-2.814,3.689,3.689,0,0,1,2.552-.939,6.254,6.254,0,0,1,1.127.112,3.6,3.6,0,0,1,1.125.414,2.812,2.812,0,0,1,.9.825,2.137,2.137,0,0,1,.375,1.276,3.482,3.482,0,0,1-.638,1.989,3.593,3.593,0,0,0-.638,2.064,1.351,1.351,0,0,0,.526,1.277,2.9,2.9,0,0,0,1.426.3,4.489,4.489,0,0,0,2.214-.563,6.735,6.735,0,0,0,1.989-1.839,18.873,18.873,0,0,0,1.951-3.34q.975-2.067,2.177-5.067l3.3-8.406L616.13,213.133h-5.179Z" style="fill:#fff"/><rect width="531.429" height="341.757" style="fill:#58deb9"/><path d="M77.233,135.032H105.9V238h56.554v24.182H77.233Z" style="fill:#fff"/><path d="M165.769,235.272a28.391,28.391,0,0,1,3.511-14.334q3.508-6.142,11.213-10.433t19.794-6.923a190.929,190.929,0,0,1,29.253-3.609,14.4,14.4,0,0,0-5.754-10.336q-4.971-3.7-14.918-3.705a43.459,43.459,0,0,0-14.139,2.438A125.609,125.609,0,0,0,179.42,194.9l-10.14-18.722a114.948,114.948,0,0,1,21.354-9.36,76.884,76.884,0,0,1,23.89-3.706q20.279,0,31.982,10.727t11.7,32.958v55.384h-23.4l-2.145-10.921h-.78a77,77,0,0,1-16.186,9.458,45.162,45.162,0,0,1-18.137,3.8,36.879,36.879,0,0,1-13.261-2.242,28.734,28.734,0,0,1-9.946-6.24,28.29,28.29,0,0,1-6.338-9.264A29.041,29.041,0,0,1,165.769,235.272Zm27.5-2.145a7.574,7.574,0,0,0,3.607,6.923q3.607,2.244,9.849,2.243a28.311,28.311,0,0,0,12.091-2.633,57.028,57.028,0,0,0,10.726-6.533V217.136a134,134,0,0,0-17.747,1.95,44.4,44.4,0,0,0-11.116,3.412,13.57,13.57,0,0,0-5.753,4.778A11.083,11.083,0,0,0,193.267,233.127Z" style="fill:#fff"/><path d="M265.421,115.849h28.668V159.02l-.78,15.211a42.008,42.008,0,0,1,12.773-8.19,37.613,37.613,0,0,1,30.423.585,34.26,34.26,0,0,1,12.286,9.848,46.322,46.322,0,0,1,7.7,15.407,69.859,69.859,0,0,1,2.731,20.183,65.4,65.4,0,0,1-3.511,22.233,51.243,51.243,0,0,1-9.36,16.479,40.219,40.219,0,0,1-13.36,10.238,36.642,36.642,0,0,1-15.7,3.51,30.4,30.4,0,0,1-13.553-3.314,46.437,46.437,0,0,1-12.775-9.557h-.779l-2.341,10.531H265.421Zm28.668,118.838a25.472,25.472,0,0,0,8.483,4.973,26.239,26.239,0,0,0,8.289,1.463q7.994,0,13.456-6.729t5.46-21.745q0-26.13-17.746-26.132-9.17,0-17.942,8.971Z" style="fill:#fff"/><path d="M372.094,231.761a90.324,90.324,0,0,0,16.869,8.386,52.385,52.385,0,0,0,18.235,3.12q9.945,0,14.236-2.144t4.29-6.046q0-4.483-7.118-7.314t-18.82-6.142a118.947,118.947,0,0,1-12.578-4.193,53.5,53.5,0,0,1-11.018-5.851,30.316,30.316,0,0,1-7.9-7.9,18.045,18.045,0,0,1-3.022-10.335,25.028,25.028,0,0,1,3.12-12.287,27.607,27.607,0,0,1,8.873-9.555,46.53,46.53,0,0,1,14.042-6.143,71.412,71.412,0,0,1,18.624-2.243,63.53,63.53,0,0,1,23.5,4.193,106.049,106.049,0,0,1,18.234,9.069L438.79,193.538a87.688,87.688,0,0,0-13.651-6.533,41.322,41.322,0,0,0-14.626-2.633q-9.17,0-12.969,1.95t-3.8,5.656a5.169,5.169,0,0,0,1.95,3.9A18.04,18.04,0,0,0,400.957,199a69.623,69.623,0,0,0,7.9,2.633q4.581,1.269,9.653,2.631,7.214,1.953,13.652,4.389a54.336,54.336,0,0,1,11.311,5.753,26.893,26.893,0,0,1,7.8,8,20.181,20.181,0,0,1,2.925,10.921,25.038,25.038,0,0,1-3.12,12.287,29.534,29.534,0,0,1-9.069,9.848,47.268,47.268,0,0,1-14.821,6.631,82.293,82.293,0,0,1-46.122-1.853A94.5,94.5,0,0,1,359.223,249.7Z" style="fill:#fff"/></g></g></svg>