<svg xmlns="http://www.w3.org/2000/svg" viewBox="0 0 334.802 381"><title>bold</title><g id="Layer_2" data-name="Layer 2"><g id="Layer_1-2" data-name="Layer 1"><path d="M255.722,11.685q31.794,11.694,49.187,33.426T322.3,96.2q0,29.9-17.665,52.177t-48.1,30.436q36.408,7.07,57.341,33.154,20.915,26.088,20.925,63.046,0,32.077-17.936,56.254t-51.09,36.958Q232.619,381,188.055,381H0V0H180.989Q223.918,0,255.722,11.685Zm-47.558,129.9q11.949-10.051,11.957-27.991,0-17.388-11.957-26.9t-32.611-8.968H99.462v73.917h76.091Q196.2,151.639,208.164,141.585Zm8.7,151.366q15.209-10.866,15.218-30.436,0-17.936-15.218-28.534t-41.308-10.055H99.462v79.895h76.091Q201.643,303.821,216.861,292.951Z" style="fill:#fff"/></g></g></svg>