<svg xmlns="http://www.w3.org/2000/svg" viewBox="0 0 381 381"><title>h2</title><g id="Layer_2" data-name="Layer 2"><g id="Layer_1-2" data-name="Layer 1"><path d="M0,0H74.675V116.706H190.158V0h74.676V286.052H190.158V176.283H74.675V286.052H0Z" style="fill:#fff"/><path d="M381,355.275V381H287.551l-.176-21.175L332,313.975a63.33,63.33,0,0,0,8.575-10.85q3.322-5.423,3.325-9.275a9.1,9.1,0,0,0-3.675-7.787q-3.675-2.711-10.325-2.713-7.351,0-16.362,4.113a71.768,71.768,0,0,0-17.413,11.462L283.875,275.3q25.373-18.375,50.926-18.375a56.925,56.925,0,0,1,21.962,4.025,35.494,35.494,0,0,1,15.226,11.375,27.262,27.262,0,0,1,5.512,16.8q0,9.45-6.212,19.513A121.369,121.369,0,0,1,353.7,330.075l-25.024,25.2Z" style="fill:#fff"/></g></g></svg>