<?xml version="1.0" encoding="utf-8"?>
<!-- Generator: Adobe Illustrator 21.1.0, SVG Export Plug-In . SVG Version: 6.00 Build 0)  -->
<svg version="1.1" id="Layer_1" xmlns="http://www.w3.org/2000/svg" xmlns:xlink="http://www.w3.org/1999/xlink" x="0px" y="0px"
	 viewBox="0 0 381 381" style="enable-background:new 0 0 381 381;" xml:space="preserve">
<style type="text/css">
	.st0{fill:#FFFFFF;}
	.st1{display:none;}
	.st2{display:none;fill:#DD4700;}
	.st3{font-family:'Montserrat-Bold';}
	.st4{font-size:193.853px;}
</style>
<title>h2</title>
<g id="Layer_2">
	<g id="Layer_1-2">
		<path class="st0" d="M0,0h74.7v116.7h115.5V0h74.7v286.1h-74.7V176.3H74.7v109.8H0V0z"/>
		<path class="st1" d="M381,355.3V381h-93.4l-0.2-21.2L332,314c3.2-3.3,6.1-6.9,8.6-10.9c2.2-3.6,3.3-6.7,3.3-9.3
			c0.2-3-1.2-6-3.7-7.8c-2.4-1.8-5.9-2.7-10.3-2.7c-4.9,0-10.4,1.4-16.4,4.1c-6.3,3-12.2,6.8-17.4,11.5l-12.3-23.6
			c16.9-12.3,33.9-18.4,50.9-18.4c7.5-0.1,15,1.2,22,4c6,2.3,11.3,6.3,15.2,11.4c3.7,4.8,5.6,10.7,5.5,16.8c0,6.3-2.1,12.8-6.2,19.5
			c-5,7.8-10.9,15-17.6,21.4l-25,25.2L381,355.3z"/>
		<text transform="matrix(1 0 0 1 274 381)" class="st2 st3 st4">3</text>
		<g>
			<path class="st0" d="M372.1,318.9c5.9,5.8,8.9,13.3,8.9,22.4c0,7.7-2,14.6-6.1,20.6c-4,6-9.8,10.7-17.1,14c-7.4,3.3-16,5-26,5
				c-8.9,0-17.6-1.4-26.2-4.1c-8.6-2.7-15.8-6.3-21.7-10.8l11.8-22.3c5.1,4.3,10.5,7.5,16.3,9.7c5.8,2.2,11.5,3.3,17.3,3.3
				c6.7,0,11.8-1.3,15.4-3.9c3.6-2.6,5.4-6.3,5.4-11.2s-1.8-8.5-5.4-11.1c-3.6-2.5-8.8-3.8-15.6-3.8h-20.4v-17.3l28-27h-46.4v-24.2
				h84.8v18.4L342,306.9l6.4,1.2C358.3,309.5,366.1,313.1,372.1,318.9z"/>
		</g>
	</g>
</g>
</svg>
