<?xml version="1.0" encoding="utf-8"?>
<!-- Generator: Adobe Illustrator 21.1.0, SVG Export Plug-In . SVG Version: 6.00 Build 0)  -->
<svg version="1.1" id="Layer_1" xmlns="http://www.w3.org/2000/svg" xmlns:xlink="http://www.w3.org/1999/xlink" x="0px" y="0px"
	 viewBox="0 0 381 381" style="enable-background:new 0 0 381 381;" xml:space="preserve">
<style type="text/css">
	.st0{fill:#FFFFFF;}
	.st1{display:none;fill:#FFFFFF;}
	.st2{display:none;fill:#FFFFFF;enable-background:new    ;}
	.st3{font-family:'Montserrat-Bold';}
	.st4{font-size:193.853px;}
</style>
<title>h2</title>
<g id="Layer_2">
	<g id="Layer_1-2">
		<path class="st0" d="M0,0h74.7v116.7h115.5V0h74.7v286.1h-74.7V176.3H74.7v109.8H0V0z"/>
		<path class="st1" d="M381,355.3V381h-93.4l-0.2-21.2L332,314c3.2-3.3,6.1-6.9,8.6-10.9c2.2-3.6,3.3-6.7,3.3-9.3
			c0.2-3-1.2-6-3.7-7.8c-2.4-1.8-5.9-2.7-10.3-2.7c-4.9,0-10.4,1.4-16.4,4.1c-6.3,3-12.2,6.8-17.4,11.5l-12.3-23.6
			c16.9-12.3,33.9-18.4,50.9-18.4c7.5-0.1,15,1.2,22,4c6,2.3,11.3,6.3,15.2,11.4c3.7,4.8,5.6,10.7,5.5,16.8c0,6.3-2.1,12.8-6.2,19.5
			c-5,7.8-10.9,15-17.6,21.4l-25,25.2L381,355.3z"/>
		<text transform="matrix(1 0 0 1 274 381)" class="st2 st3 st4">4</text>
		<g>
			<path class="st0" d="M358.5,306.1c7.2,3.2,12.7,7.5,16.6,13.1s5.9,12,5.9,19.3c0,8.5-2,16-6.1,22.4s-9.9,11.4-17.5,14.9
				s-16.4,5.3-26.4,5.3c-8.2,0-16.6-1.4-25.3-4.2c-8.7-2.8-16.4-6.5-23.2-11l11.9-23.1c11.3,9.1,22.3,13.7,33.1,13.7
				c6.1,0,10.8-1.4,14.2-4.1c3.4-2.7,5.1-6.5,5.1-11.3s-1.7-8.4-5-10.9s-8.3-3.8-15-3.8c-15.5,0-26.7,0.2-33.6,0.7v-70h82.4v25.7
				h-53v18.7h11C343,301.4,351.3,302.9,358.5,306.1z"/>
		</g>
	</g>
</g>
</svg>
