<svg xmlns="http://www.w3.org/2000/svg" viewBox="0 0 378.601 336.222"><title>ordered-list</title><g id="Layer_2" data-name="Layer 2"><g id="Layer_1-2" data-name="Layer 1"><rect x="64.434" y="10.028" width="314.167" height="30.417" style="fill:#fff"/><rect x="64.434" y="105.278" width="314.167" height="30.417" style="fill:#fff"/><rect x="64.434" y="200.528" width="314.167" height="30.417" style="fill:#fff"/><rect x="64.434" y="295.778" width="314.167" height="30.417" style="fill:#fff"/><path d="M9.251,0h22.9V50.472H18.972V10.8H9.251Z" style="fill:#fff"/><path d="M40.68,135.426V146.01H2.231L2.16,137.3,20.52,118.434a26.029,26.029,0,0,0,3.528-4.464,7.7,7.7,0,0,0,1.368-3.816,3.743,3.743,0,0,0-1.512-3.2,7.051,7.051,0,0,0-4.248-1.115,16.443,16.443,0,0,0-6.732,1.691,29.547,29.547,0,0,0-7.164,4.716l-5.04-9.72q10.438-7.56,20.952-7.56a23.425,23.425,0,0,1,9.036,1.655,14.6,14.6,0,0,1,6.264,4.681,11.217,11.217,0,0,1,2.269,6.912,15.294,15.294,0,0,1-2.557,8.027,49.954,49.954,0,0,1-7.235,8.82l-10.3,10.368Z" style="fill:#fff"/><path d="M37.188,215.448a12.5,12.5,0,0,1,3.708,9.324,14.984,14.984,0,0,1-2.521,8.567,16.6,16.6,0,0,1-7.128,5.832,25.936,25.936,0,0,1-10.8,2.089A36.082,36.082,0,0,1,9.54,239.568a29.184,29.184,0,0,1-9.036-4.5l4.9-9.288a23.37,23.37,0,0,0,6.768,4.032,20.14,20.14,0,0,0,7.2,1.368,10.8,10.8,0,0,0,6.408-1.62,5.392,5.392,0,0,0,2.231-4.645,5.3,5.3,0,0,0-2.231-4.607,11.138,11.138,0,0,0-6.48-1.584H10.8v-7.2l11.664-11.232H3.167v-10.08h35.28v7.633L24.7,210.444l2.664.5A16.993,16.993,0,0,1,37.188,215.448Z" style="fill:#fff"/><path d="M41.4,315.342V325.35H34.92v10.872h-12.1V325.35H0v-8.928L14.327,285.75H26.855L13.392,315.342h9.432V304.614h12.1v10.728Z" style="fill:#fff"/></g></g></svg>