<svg xmlns="http://www.w3.org/2000/svg" viewBox="0 0 338.47 378.167"><title>strikethrough</title><g id="Layer_2" data-name="Layer 2"><g id="Layer_1-2" data-name="Layer 1"><rect y="169.417" width="338.47" height="42.167" style="fill:#fff"/><path d="M175.705,232.667q4.023,1.312,7.388,2.516a67.226,67.226,0,0,1,22.919,13.282,27.083,27.083,0,0,1,9.115,20.836q0,15.114-12.241,22.919t-33.6,7.813q-29.178,0-66.934-15.627Q64.583,268.78,36.983,244.3L0,318.785Q32.816,346.4,77.873,362.279a270.246,270.246,0,0,0,90.374,15.887q41.143,0,74.748-13.023t52.871-38.806q19.265-25.784,19.273-62.246a116.193,116.193,0,0,0-3.991-31.425Z" style="fill:#fff"/><path d="M188.429,148.333q-22.725-7.022-34.767-11.6a67.592,67.592,0,0,1-21.877-13.023,26.01,26.01,0,0,1-8.855-20.054q0-12.5,10.158-19.013t27.867-6.511q22.39,0,55.474,10.939A320.527,320.527,0,0,1,278.676,117.2l35.942-76.05Q285.439,22.4,246.9,11.2A278.878,278.878,0,0,0,168.769,0Q125.013,0,91.937,13.8T40.89,53.131Q22.918,78.659,22.919,112.512q0,20.165,5.492,35.821Z" style="fill:#fff"/></g></g></svg>